<svg width="20" height="19" viewBox="0 0 20 19" fill="none" xmlns="http://www.w3.org/2000/svg">
<g clip-path="url(#clip0_955_11581)">
<path d="M19.6014 4.89859C19.4883 4.49438 19.2654 4.12547 18.9551 3.82878C18.6448 3.53209 18.2579 3.31803 17.8332 3.20803C16.2695 2.80859 10.0195 2.80859 10.0195 2.80859C10.0195 2.80859 3.76953 2.80859 2.20589 3.20803C1.78114 3.31803 1.39425 3.53209 1.08394 3.82878C0.773628 4.12547 0.550786 4.49438 0.437713 4.89859C0.0195313 6.39053 0.0195312 9.50178 0.0195312 9.50178C0.0195312 9.50178 0.0195313 12.613 0.437713 14.105C0.550786 14.5092 0.773628 14.8781 1.08394 15.1748C1.39425 15.4715 1.78114 15.6855 2.20589 15.7955C3.76953 16.195 10.0195 16.195 10.0195 16.195C10.0195 16.195 16.2695 16.195 17.8332 15.7955C18.2579 15.6855 18.6448 15.4715 18.9551 15.1748C19.2654 14.8781 19.4883 14.5092 19.6014 14.105C20.0195 12.613 20.0195 9.50178 20.0195 9.50178C20.0195 9.50178 20.0195 6.39053 19.6014 4.89859Z" fill="#FF0302"/>
<path d="M7.97461 12.3261V6.67578L13.2019 9.50095L7.97461 12.3261Z" fill="#FEFEFE"/>
</g>
<defs>
<clipPath id="clip0_955_11581">
<rect width="20" height="19" fill="white"/>
</clipPath>
</defs>
</svg>
