<svg width="21" height="19" viewBox="0 0 21 19" fill="none" xmlns="http://www.w3.org/2000/svg">
<g clip-path="url(#clip0_955_11575)">
<path d="M3.94219 0.861523C3.27773 1.09531 2.71582 1.40703 2.15391 1.91543C1.59199 2.42012 1.24746 2.93223 0.989063 3.52969C0.738867 4.10859 0.570703 4.77285 0.521484 5.74512C0.472266 6.71738 0.459961 7.0291 0.459961 9.50801C0.459961 11.9869 0.472266 12.2986 0.521484 13.2709C0.570703 14.2432 0.742969 14.9074 0.989063 15.4863C1.24746 16.0875 1.59199 16.5959 2.15391 17.1043C2.71582 17.6127 3.27773 17.9244 3.94219 18.1582C4.58203 18.3846 5.31621 18.5367 6.39082 18.5813C7.46543 18.6258 7.80996 18.6369 10.5498 18.6369C13.2896 18.6369 13.6342 18.6258 14.7088 18.5813C15.7834 18.5367 16.5176 18.3809 17.1574 18.1582C17.8219 17.9244 18.3838 17.6127 18.9457 17.1043C19.5076 16.5959 19.8521 16.0875 20.1105 15.4863C20.3607 14.9074 20.5289 14.2432 20.5781 13.2709C20.6273 12.2986 20.6396 11.9869 20.6396 9.50801C20.6396 7.0291 20.6273 6.71738 20.5781 5.74512C20.5289 4.77285 20.3566 4.10859 20.1105 3.52969C19.8521 2.93223 19.5076 2.42012 18.9498 1.91543C18.3879 1.40703 17.826 1.09531 17.1615 0.861523C16.5217 0.635156 15.7875 0.483008 14.7129 0.438477C13.6383 0.393945 13.2937 0.382812 10.5539 0.382812C7.81406 0.382812 7.46953 0.393945 6.39492 0.438477C5.31621 0.479297 4.58203 0.635156 3.94219 0.861523ZM14.6268 2.07871C15.6111 2.11953 16.1443 2.26797 16.5012 2.39414C16.9729 2.56113 17.3092 2.75781 17.6619 3.07695C18.0146 3.39609 18.232 3.70039 18.4166 4.12715C18.5561 4.45 18.7201 4.93242 18.7652 5.82305C18.8145 6.78418 18.8227 7.07363 18.8227 9.51172C18.8227 11.9498 18.8104 12.2393 18.7652 13.2004C18.7201 14.091 18.5561 14.5734 18.4166 14.8963C18.232 15.323 18.0146 15.6273 17.6619 15.9465C17.3092 16.2656 16.9729 16.4623 16.5012 16.6293C16.1443 16.7555 15.6111 16.9039 14.6268 16.9447C13.5645 16.9893 13.2445 16.9967 10.5498 16.9967C7.85508 16.9967 7.53516 16.9855 6.47285 16.9447C5.48848 16.9039 4.95527 16.7555 4.59844 16.6293C4.12676 16.4623 3.79043 16.2656 3.4377 15.9465C3.08496 15.6273 2.86758 15.323 2.68301 14.8963C2.54355 14.5734 2.37949 14.091 2.33438 13.2004C2.28516 12.2393 2.27695 11.9498 2.27695 9.51172C2.27695 7.07363 2.28926 6.78418 2.33438 5.82305C2.37949 4.93242 2.54355 4.45 2.68301 4.12715C2.86758 3.70039 3.08496 3.39609 3.4377 3.07695C3.79043 2.75781 4.12676 2.56113 4.59844 2.39414C4.95527 2.26797 5.48848 2.11953 6.47285 2.07871C7.53516 2.03418 7.85508 2.02676 10.5498 2.02676C13.2445 2.02676 13.5645 2.03418 14.6268 2.07871Z" fill="url(#paint0_radial_955_11575)"/>
<path d="M5.37012 9.51113C5.37012 12.1014 7.6916 14.198 10.5504 14.198C13.4092 14.198 15.7307 12.0977 15.7307 9.51113C15.7307 6.92461 13.4133 4.82422 10.5504 4.82422C7.6875 4.82422 5.37012 6.9209 5.37012 9.51113ZM13.9137 9.51113C13.9137 11.1922 12.4084 12.5541 10.5504 12.5541C8.69238 12.5541 7.18711 11.1922 7.18711 9.51113C7.18711 7.83008 8.69238 6.46816 10.5504 6.46816C12.4084 6.46816 13.9137 7.83008 13.9137 9.51113Z" fill="url(#paint1_radial_955_11575)"/>
<path d="M15.9395 5.73242C16.6077 5.73242 17.1494 5.2423 17.1494 4.6377C17.1494 4.03309 16.6077 3.54297 15.9395 3.54297C15.2712 3.54297 14.7295 4.03309 14.7295 4.6377C14.7295 5.2423 15.2712 5.73242 15.9395 5.73242Z" fill="#654C9F"/>
</g>
<defs>
<radialGradient id="paint0_radial_955_11575" cx="0" cy="0" r="1" gradientUnits="userSpaceOnUse" gradientTransform="translate(0.827131 16.9657) rotate(-2.71482) scale(29.1677 22.4423)">
<stop stop-color="#FED576"/>
<stop offset="0.2634" stop-color="#F47133"/>
<stop offset="0.6091" stop-color="#BC3081"/>
<stop offset="1" stop-color="#4C63D2"/>
</radialGradient>
<radialGradient id="paint1_radial_955_11575" cx="0" cy="0" r="1" gradientUnits="userSpaceOnUse" gradientTransform="translate(5.55802 13.3385) rotate(-2.71482) scale(14.978 11.5244)">
<stop stop-color="#FED576"/>
<stop offset="0.2634" stop-color="#F47133"/>
<stop offset="0.6091" stop-color="#BC3081"/>
<stop offset="1" stop-color="#4C63D2"/>
</radialGradient>
<clipPath id="clip0_955_11575">
<rect width="21" height="19" fill="white"/>
</clipPath>
</defs>
</svg>
