<svg width="48" height="65" viewBox="0 0 48 65" fill="none" xmlns="http://www.w3.org/2000/svg">
<path d="M23.7491 64.9975C10.0326 64.9975 1.8524 62.708 1.5114 62.6105C0.897689 62.4359 0.393416 61.9283 0.150779 61.2446C-0.0908681 60.5612 -0.0396096 59.7824 0.286941 59.1501C3.49624 52.9477 11.8349 35.2326 11.8745 27.8415C11.8939 24.3662 8.43823 16.8151 6.25608 12.8707C5.74785 11.9512 5.85611 10.7397 6.51712 9.96552L14.4335 0.680161C14.8307 0.214268 15.3844 -0.032723 15.941 0.00348986C16.5024 0.0397028 17.0253 0.354941 17.377 0.86935L21.3352 6.66017C22.8128 8.73893 23.5161 8.96688 23.7491 8.96688C23.982 8.96688 24.6854 8.73916 26.1861 6.62627L30.1212 0.86935C30.4728 0.354709 30.9947 0.0397028 31.5572 0.00348986C32.1157 -0.0225091 32.6685 0.213107 33.0647 0.680161L40.981 9.96552C41.6421 10.7397 41.7503 11.9514 41.2419 12.8707C39.0599 16.8151 35.6042 24.3673 35.6236 27.8415C35.6642 35.2384 44.0019 52.95 47.2102 59.1501C47.5368 59.7815 47.589 60.5568 47.3494 61.2391C47.1097 61.9213 46.6072 62.4304 45.9964 62.6082C45.6622 62.7057 37.6376 64.9975 23.7491 64.9975ZM5.10425 58.7C8.49226 59.3688 14.9793 60.3549 23.7491 60.3549C32.601 60.3549 39.0388 59.3743 42.3979 58.7067C39.1818 52.145 31.71 36.0339 31.6654 27.8707C31.6403 23.0286 35.3145 15.338 37.0694 11.9421L31.8277 5.79431L29.2513 9.56416C27.9006 11.4663 26.0781 13.6096 23.7491 13.6096C21.4201 13.6096 19.5975 11.4663 18.2708 9.59829L15.6702 5.79431L10.4288 11.9421C12.1846 15.338 15.8588 23.0298 15.8327 27.8707C15.7882 36.0307 8.32324 52.1327 5.10425 58.7Z" fill="#FCFCFC"/>
<path d="M33.6445 25.5345H13.8536C12.7607 25.5345 11.8745 24.495 11.8745 23.2132C11.8745 21.9313 12.7607 20.8918 13.8536 20.8918H33.6445C34.7384 20.8918 35.6236 21.9313 35.6236 23.2132C35.6236 24.495 34.7384 25.5345 33.6445 25.5345Z" fill="#FCFCFC"/>
<path d="M33.6445 32.4972H13.8536C12.7607 32.4972 11.8745 31.4577 11.8745 30.1758C11.8745 28.894 12.7607 27.8545 13.8536 27.8545H33.6445C34.7384 27.8545 35.6236 28.894 35.6236 30.1758C35.6236 31.4577 34.7384 32.4972 33.6445 32.4972Z" fill="#FCFCFC"/>
</svg>
