<svg width="71" height="69" viewBox="0 0 71 69" fill="none" xmlns="http://www.w3.org/2000/svg">
<path d="M62.2642 46.1467L60.7505 45.6948C59.4383 51.5118 55.9938 56.3957 51.2998 59.0947L51.9991 60.7036C57.0974 57.7724 60.8389 52.4665 62.2642 46.1467Z" fill="#FCFCFC"/>
<path d="M66.1623 67.1987H1.6875V68.9974H66.1623V67.1987Z" fill="#FCFCFC"/>
<path d="M5.06151 36.7871C5.1569 36.2196 5.24932 35.6876 5.33908 35.1845L9.65918 37.0127L10.1992 35.3246L5.66873 33.4074C6.27047 30.2998 6.73741 28.6394 7.1268 27.4233C7.55637 26.0795 8.41551 25.0086 9.54612 24.4078C10.6767 23.8071 11.9428 23.7488 13.1117 24.2438C14.2805 24.7379 15.2117 25.7261 15.734 27.0265C16.2561 28.3268 16.3071 29.7832 15.8776 31.127C15.8222 31.2999 15.7407 31.5292 15.6363 31.8071L11.8383 30.1998L11.2983 31.8878L14.9835 33.4475C14.4081 34.8418 13.6179 36.6601 12.7195 38.6192H2.35289V40.4676C2.35289 40.9692 2.36587 41.4768 2.39151 41.9761C2.90537 52.023 8.50261 60.4295 16.2022 63.9688H1.6875V65.7675H24.3489H43.5009H66.1623V63.9688H51.6454C59.7538 60.2382 65.4968 51.1104 65.4968 40.4676V40.3231C66.4955 40.1391 67.4423 39.6904 68.2757 38.9995C69.696 37.8219 70.6327 36.0791 70.9137 34.0918C71.195 32.1039 70.7861 30.1095 69.7626 28.4765C69.0365 27.3174 68.047 26.4443 66.9337 25.9177C67.3272 25.2705 67.5774 24.51 67.6401 23.7162C67.6754 23.2774 67.6546 22.8326 67.578 22.3924C67.142 19.9266 65.0429 18.3272 62.8984 18.8281C62.5276 18.9148 62.174 19.0604 61.8461 19.2578C61.8402 19.2143 61.8361 19.1708 61.8297 19.1271C61.4714 16.7161 60.3186 14.6097 58.5831 13.1961C55.0007 10.2779 50.0222 11.2562 47.485 15.3768C47.0773 16.0391 46.7553 16.753 46.5181 17.4968C42.9811 16.5078 39.3525 18.9033 38.3387 22.963C37.8976 24.7275 38.0083 26.6231 38.6504 28.3006L40.0816 27.5759C39.5865 26.2828 39.5013 24.821 39.8415 23.4599C40.2301 21.9039 41.1223 20.615 42.3536 19.8307C43.5133 19.0925 44.843 18.8853 46.1247 19.2368C45.8501 21.2429 46.1517 23.3416 47.0457 25.1678L48.4084 24.2853C47.1997 21.8163 47.3381 18.7278 48.7612 16.4165C49.7486 14.8126 51.2202 13.7469 52.9046 13.4159C54.5888 13.0849 56.2845 13.5281 57.6791 14.6642C59.0735 15.8001 60.0002 17.4926 60.288 19.43C60.5757 21.3673 60.1902 23.3178 59.2027 24.9217L60.4789 25.9612C61.3143 24.6046 61.8023 23.0488 61.9174 21.4344C62.2589 21.0049 62.7076 20.7083 63.2097 20.5908C64.5097 20.2878 65.7812 21.2565 66.045 22.7486C66.0916 23.0155 66.1043 23.2853 66.0829 23.552C66.0264 24.2692 65.7182 24.9415 65.2448 25.407C64.5899 25.312 63.9187 25.3259 63.2523 25.4667L63.5347 27.2359C65.4254 26.8362 67.3719 27.7361 68.4941 29.528C70.1024 32.0945 69.5945 35.6888 67.3616 37.5404C66.5276 38.2316 65.5449 38.6041 64.5189 38.6191H55.9261C58.2719 34.6801 60.2506 34.472 60.2723 34.4704L60.2564 34.4711L60.2121 32.6731C59.8933 32.6836 57.0738 32.9431 54.0663 38.6191H53.6765C53.7041 38.328 53.7221 38.0347 53.7262 37.7395C53.7606 35.1771 52.9191 32.7607 51.3569 30.9358C49.7942 29.1103 47.7074 28.105 45.4805 28.105C44.0885 28.105 42.7106 28.5121 41.4954 29.2828C41.1378 29.5107 40.7599 29.726 40.3731 29.9224C38.3864 30.9297 36.2879 31.3353 34.304 31.0946C34.1398 31.0748 33.9724 31.0655 33.8036 31.0624C31.9793 29.3087 29.914 27.8023 28.3109 26.7382C28.2785 24.7276 28.433 22.7011 28.7731 20.7117L28.9565 19.6388H28.0059C27.5673 19.6388 26.4465 19.7545 25.5156 20.8252C25.4268 20.9276 25.3441 21.0349 25.266 21.1457C25.188 21.0349 25.1053 20.9276 25.0164 20.8252C24.0854 19.7543 22.9648 19.6388 22.5261 19.6388H21.5755L21.7588 20.7115C22.0989 22.7011 22.2532 24.7275 22.221 26.7371C20.8904 27.6199 19.2417 28.8067 17.6778 30.1868C17.8276 28.8626 17.6526 27.514 17.1538 26.272C16.8 25.3914 16.3056 24.6186 15.7008 23.9841C16.0471 23.726 16.3794 23.4232 16.6713 23.1399C17.7952 22.0487 19.0988 20.4423 20.342 18.6168C21.585 16.7919 22.6285 14.9516 23.2803 13.4351C23.8197 12.1802 24.4333 10.4182 23.5371 9.60971C22.8071 8.95193 21.5994 9.50106 19.9357 11.2408C19.9587 10.9972 19.9767 10.7592 19.9879 10.5294C20.1192 7.8425 19.3765 6.95251 18.7304 6.67911C17.5877 6.19562 16.311 7.42592 15.177 9.37624C14.8978 6.70879 14.2819 5.33711 13.3364 5.29286C12.2067 5.24052 11.6733 7.03957 11.377 8.39739C11.0187 10.0382 10.7765 12.2173 10.6947 14.5336C10.6128 16.8507 10.7002 19.046 10.9412 20.7148C11.0054 21.1601 11.0905 21.6532 11.2144 22.119C10.4207 22.1613 9.63369 22.3798 8.89058 22.7746C7.3806 23.5768 6.2331 25.0073 5.6595 26.8017C5.12656 28.466 4.45633 30.9135 3.52619 36.4452L5.06151 36.7871ZM16.6813 33.5187C17.2653 32.8778 17.9053 32.2591 18.5669 31.6733C17.5472 33.6083 16.8433 35.8615 16.8433 38.251C16.8433 38.3741 16.8473 38.4966 16.8494 38.6194H14.4853C15.4003 36.5973 16.1608 34.815 16.6813 33.5187ZM28.2522 35.7825H25.3897V37.5812H28.028C28.0273 37.9312 28.0494 38.278 28.0965 38.6194H22.8276C22.8265 38.4966 22.8248 38.3741 22.8248 38.251C22.8248 34.0936 23.8192 30.6243 24.6239 28.6918V28.9508H24.6255L24.6253 28.6885C24.8732 28.0935 25.1034 27.6426 25.2804 27.3649C25.7594 28.0874 26.6362 30.049 27.2132 33.0653L28.7406 32.6789C28.4374 31.0934 28.0054 29.5616 27.5074 28.2872C28.7493 29.1112 30.2803 30.2086 31.7316 31.4679C30.5654 31.9684 29.5547 32.9081 28.8773 34.1664C28.6042 34.6715 28.3955 35.2161 28.2522 35.7825ZM18.4132 38.6194C18.4107 38.4966 18.4071 38.3743 18.4071 38.251C18.4071 34.6909 20.2552 31.7772 21.3569 30.3573C21.8937 29.6654 22.4253 29.0954 22.9182 28.6365C22.819 28.9072 22.7258 29.1779 22.6395 29.4416C22.1247 31.0144 21.2612 34.2502 21.2612 38.251C21.2612 38.3741 21.2629 38.4966 21.264 38.6194H18.4132ZM63.933 40.4677C63.933 53.4265 54.7672 63.969 43.5009 63.969H24.3489C13.5455 63.969 4.58644 54.2622 3.95264 41.8705C3.92887 41.4063 3.91682 40.9343 3.91682 40.4677V40.4181H63.9331V40.4677H63.933ZM41.6587 37.5897C41.6587 35.1512 43.384 33.1676 45.5049 33.1676C47.6249 33.1676 49.3496 35.1514 49.3496 37.5897C49.3496 37.9399 49.3104 38.2836 49.2406 38.6194H41.7681C41.6979 38.2845 41.6587 37.9408 41.6587 37.5897ZM41.0041 31.5686C41.4341 31.3502 41.8544 31.1106 42.2516 30.8574C43.2351 30.2338 44.3516 29.9041 45.4804 29.9041C47.2848 29.9041 48.976 30.7189 50.2426 32.1981C51.5086 33.677 52.1904 35.6352 52.1624 37.7114C52.1582 38.0169 52.1366 38.3203 52.1016 38.6194H50.838C50.887 38.2809 50.9131 37.9374 50.9131 37.5897C50.9131 34.1596 48.4867 31.3689 45.5046 31.3689C42.5215 31.3689 40.0946 34.1596 40.0946 37.5897C40.0946 37.9377 40.1207 38.2813 40.1698 38.6194H29.6879C29.6143 38.2388 29.5814 37.8474 29.5917 37.4499C29.613 36.6259 29.8251 35.819 30.2057 35.1147C30.9249 33.7786 32.1563 32.9372 33.4998 32.8638C33.717 32.8519 33.9322 32.8588 34.1395 32.884C36.395 33.1568 38.7682 32.7023 41.0041 31.5686ZM26.6212 22.0976C26.7532 21.9458 26.8931 21.8287 27.032 21.7384C26.8594 23.0666 26.7641 24.4057 26.7455 25.7417C26.4673 25.5723 26.2321 25.4329 26.0478 25.3255V23.6902C26.0478 23.0885 26.2514 22.523 26.6212 22.0976ZM23.4996 21.7384C23.6384 21.8287 23.7784 21.9458 23.9104 22.0976C24.2802 22.523 24.4838 23.0885 24.4838 23.6902V25.3253C24.2994 25.4325 24.0635 25.5725 23.7861 25.7414C23.7676 24.4055 23.6724 23.0666 23.4996 21.7384ZM22.3392 11.3713C22.0471 12.4293 21.059 14.6476 19.1108 17.5081C18.6323 18.2107 18.173 18.8384 17.7397 19.3956C18.1189 18.5227 18.465 17.5951 18.7627 16.6643C19.0006 15.9213 19.2047 15.1822 19.3779 14.4597C20.7476 12.7119 21.7646 11.7732 22.3392 11.3713ZM18.1888 8.37239C18.5202 8.73572 18.7366 11.5375 17.2954 16.0431C15.8539 20.5489 14.1102 22.5212 13.6532 22.5507C13.3219 22.1874 13.1053 19.3856 14.5466 14.8798C15.9881 10.374 17.7319 8.40189 18.1888 8.37239ZM12.2572 14.6072C12.3853 10.9767 12.8831 8.55082 13.2567 7.52737C13.474 8.28282 13.7281 9.81691 13.7765 12.2885L13.7851 12.2883C13.5288 12.931 13.2917 13.5942 13.079 14.2588C12.7453 15.302 12.4598 16.3879 12.2476 17.4442C12.2211 16.5985 12.2202 15.6518 12.2572 14.6072Z" fill="#FCFCFC"/>
<path d="M7.8258 30.4182L9.8916 31.2925L10.4316 29.6044L8.36577 28.7302L7.8258 30.4182Z" fill="#FCFCFC"/>
<path d="M65.8969 35.5027C65.3333 35.9695 64.6455 36.1556 63.9598 36.0277L63.709 37.803C63.9351 37.8453 64.1615 37.8664 64.3861 37.8664C65.2521 37.8664 66.0942 37.5557 66.8107 36.9625C67.7132 36.215 68.3085 35.1077 68.4873 33.845C68.6657 32.5824 68.406 31.3154 67.7562 30.2773L66.4872 31.3285C66.8932 31.9767 67.0552 32.768 66.9437 33.5563C66.832 34.3445 66.4603 35.0358 65.8969 35.5027Z" fill="#FCFCFC"/>
<path d="M52.4238 18.2049L52.856 16.4762C51.0636 15.8839 49.1855 17.0787 48.6701 19.1406C48.1548 21.2026 49.1941 23.3623 50.9867 23.9551L51.4186 22.2264C50.4547 21.9077 49.8961 20.7462 50.173 19.6375C50.4501 18.5288 51.4599 17.8862 52.4238 18.2049Z" fill="#FCFCFC"/>
<path d="M25.1508 6.25528H26.7146V4.02707H28.652V2.22839H26.7146V0H25.1508V2.22839H23.2136V4.02707H25.1508V6.25528Z" fill="#FCFCFC"/>
<path d="M43.4549 14.2987H45.0187V12.0705H46.9561V10.2718H45.0187V8.04346H43.4549V10.2718H41.5176V12.0705H43.4549V14.2987Z" fill="#FCFCFC"/>
<path d="M1.93737 21.9189H3.50115V19.6906H5.43851V17.892H3.50115V15.6636H1.93737V17.892H0V19.6906H1.93737V21.9189Z" fill="#FCFCFC"/>
</svg>
