<svg width="27" height="32" viewBox="0 0 27 32" fill="none" xmlns="http://www.w3.org/2000/svg">
<path d="M13.2 0C5.9092 0 0 6.06072 0 13.5385C0 19.0421 3.2032 23.7748 7.8 25.8917V26.4615C7.8 29.5077 10.23 32 13.2 32C16.17 32 18.6 29.5077 18.6 26.4615V25.8917C23.1968 23.7748 26.4 19.0421 26.4 13.5385C26.4 6.06072 20.4908 0 13.2 0ZM13.9196 24.5883C13.6812 24.6043 13.442 24.6154 13.2 24.6154C12.958 24.6154 12.7188 24.6043 12.4804 24.5883V16.5986L13.9196 16.5977V24.5883ZM15.1196 24.4365V13.2751H13.9196V15.367L12.4804 15.3678V13.2751H11.2804V24.4365C6.2384 23.5048 2.4 18.9739 2.4 13.5385C2.4 7.43056 7.2448 2.46154 13.2 2.46154C19.1552 2.46154 24 7.43056 24 13.5385C24 18.9739 20.1616 23.5048 15.1196 24.4365ZM9.2404 9.95159C7.4536 9.95159 6 11.4425 6 13.2751C6 15.1077 7.4536 16.599 9.2408 16.599L10.0992 16.5982L10.0984 15.3674L9.24 15.3682C8.1148 15.3682 7.1996 14.4295 7.1996 13.2751C7.1996 12.121 8.1148 11.1824 9.24 11.1824C10.3652 11.1824 11.2804 12.121 11.2804 13.2751H12.4804C12.4804 11.4425 11.0268 9.95159 9.2404 9.95159ZM17.1596 9.95159C15.3728 9.95159 13.9196 11.4425 13.9196 13.2751H15.1196C15.1196 12.121 16.0344 11.1824 17.1596 11.1824C18.2848 11.1824 19.2 12.121 19.2 13.2747C19.2 14.3885 18.3516 15.3063 17.2696 15.3645C17.2444 15.3657 17.2192 15.367 17.194 15.3674L17.1552 15.3678L17.1556 15.3805C16.9512 15.3657 16.6932 15.367 16.3692 15.3678L16.3724 16.5986C16.5808 16.5982 16.9996 16.5973 17.16 16.5973V16.5986C17.2172 16.5986 17.2736 16.5965 17.3312 16.5936C19.052 16.5017 20.4 15.0437 20.4 13.2747C20.4 11.4425 18.9464 9.95159 17.1596 9.95159Z" fill="#FCFCFC"/>
</svg>
