<svg width="42" height="32" viewBox="0 0 42 32" fill="none" xmlns="http://www.w3.org/2000/svg">
<path fill-rule="evenodd" clip-rule="evenodd" d="M21.0007 9.69644C24.1639 9.69644 26.7281 12.4197 26.7281 15.7791C26.7281 18.4274 25.1343 20.6804 22.9098 21.5155V31.9992H19.0916V21.5155C16.8672 20.6804 15.2734 18.4274 15.2734 15.7791C15.2734 12.4197 17.8376 9.69644 21.0007 9.69644ZM21.0007 13.7515C22.0551 13.7515 22.9098 14.6593 22.9098 15.7791C22.9098 16.8986 22.0551 17.8066 21.0007 17.8066C19.9463 17.8066 19.0916 16.8986 19.0916 15.7791C19.0916 14.6593 19.9463 13.7515 21.0007 13.7515Z" fill="#FCFCFC"/>
<path d="M11.5507 5.73215C9.13246 8.30048 7.63672 11.8486 7.63672 15.7678C7.63672 20.1827 9.53486 24.1268 12.5117 26.7297L15.2294 23.8433C12.9358 21.9918 11.4549 19.0635 11.4549 15.7678C11.4549 12.9684 12.5233 10.434 14.2506 8.59947L11.5507 5.73215Z" fill="#FCFCFC"/>
<path d="M27.7503 8.59948C29.4776 10.434 30.5462 12.9684 30.5462 15.768C30.5462 19.0637 29.0653 21.9922 26.7715 23.8438L29.4891 26.7301C32.4661 24.1272 34.3644 20.1829 34.3644 15.768C34.3644 11.8487 32.8686 8.3005 30.4501 5.73215L27.7503 8.59948Z" fill="#FCFCFC"/>
<path d="M0 15.7703C0 9.61156 2.35047 4.03596 6.15067 0L8.85056 2.86733C5.7413 6.16947 3.8182 10.7313 3.8182 15.7703C3.8182 20.8091 5.7413 25.371 8.85054 28.673L6.15065 31.5405C2.35047 27.5045 0 21.9289 0 15.7703Z" fill="#FCFCFC"/>
<path d="M35.8483 31.5409C39.6487 27.5049 41.9992 21.9291 41.9992 15.7705C41.9992 9.61168 39.6487 4.03599 35.8483 0L33.1484 2.86733C36.2578 6.16952 38.181 10.7315 38.181 15.7705C38.181 20.8095 36.2578 25.3714 33.1484 28.6736L35.8483 31.5409Z" fill="#FCFCFC"/>
</svg>
