<svg width="43" height="43" viewBox="0 0 43 43" fill="none" xmlns="http://www.w3.org/2000/svg">
<path d="M6.34214 0.0505219C5.5222 0.141121 4.59802 0.435619 3.78719 0.85693C1.87997 1.86256 0.462125 3.81957 0.0861035 5.97589C0.00451412 6.43341 0 7.04949 0 21.2875V36.1235L0.104246 36.5856C0.756566 39.5346 2.84036 41.6185 5.78948 42.2708L6.25154 42.375H21.1555H36.0595L36.5215 42.2708C39.4706 41.6185 41.5544 39.5346 42.2068 36.5856L42.3109 36.1235V21.2875C42.3109 7.04948 42.3064 6.4334 42.2249 5.97589C42.1116 5.31448 41.8852 4.64853 41.5408 3.96004C40.4672 1.79911 38.3109 0.304218 35.8919 0.0414696C35.3392 -0.0174446 6.87668 -0.0128288 6.34214 0.0505219ZM22.5281 7.5841C24.0864 7.77887 25.3458 8.15484 26.7275 8.82983C28.0865 9.49578 28.9562 10.1254 30.1069 11.2715C31.185 12.3542 31.783 13.1742 32.4172 14.4471C33.3006 16.2229 33.8035 18.3339 33.8895 20.6579C33.9212 21.4505 33.8986 21.6273 33.7173 21.8537C33.3731 22.2932 32.6165 22.2206 32.3584 21.7269C32.2768 21.5638 32.2541 21.4235 32.2269 20.7892C32.1816 19.8153 32.1137 19.1856 31.9778 18.4336C31.4433 15.4845 30.0299 13.1289 27.7739 11.4391C25.8939 10.0258 23.9505 9.33713 21.4046 9.1877C20.5439 9.13783 20.3944 9.10615 20.1996 8.95663C19.8372 8.67126 19.8191 8.00089 20.1679 7.68827C20.3808 7.49342 20.5303 7.46626 21.2687 7.48889C21.6538 7.50248 22.22 7.54781 22.5281 7.5841ZM12.1723 8.07329C12.3309 8.12769 12.5755 8.25448 12.716 8.34508C13.5766 8.9159 15.9731 11.9827 16.7568 13.5139C17.2052 14.3882 17.3547 15.036 17.2144 15.5162C17.0693 16.0326 16.8293 16.3045 15.7557 17.1697C15.3253 17.5185 14.9221 17.8763 14.8587 17.9715C14.6956 18.2071 14.5642 18.6692 14.5642 18.9953C14.5688 19.7518 15.058 21.1244 15.7013 22.18C16.1996 22.9999 17.092 24.0509 17.9754 24.8572C19.0127 25.8086 19.9278 26.4563 20.9607 26.9682C22.288 27.6296 23.0989 27.7972 23.6924 27.521C23.8418 27.453 24.0003 27.3623 24.0502 27.3217C24.0955 27.2809 24.4443 26.855 24.8249 26.3839C25.5587 25.4597 25.7263 25.3103 26.2292 25.1381C26.8679 24.9207 27.5203 24.9795 28.1771 25.3148C28.6754 25.573 29.7626 26.248 30.4648 26.7372C31.3889 27.385 33.364 28.9978 33.6313 29.3194C34.1024 29.8992 34.184 30.6421 33.8668 31.4622C33.5316 32.3273 32.227 33.9491 31.3164 34.6422C30.492 35.2674 29.9076 35.5074 29.1375 35.5437C28.5033 35.5753 28.2405 35.521 27.4296 35.1858C21.0694 32.5629 15.9912 28.649 11.9594 23.2717C9.85297 20.4631 8.24929 17.5502 7.15297 14.5287C6.51428 12.7665 6.48259 12.0009 7.00802 11.0994C7.23456 10.7189 8.19947 9.77662 8.90162 9.25114C10.0704 8.38137 10.6095 8.05972 11.0398 7.96912C11.3343 7.90568 11.8461 7.95555 12.1723 8.07329ZM22.8406 10.8684C25.5905 11.2715 27.7196 12.549 29.1148 14.6238C29.8986 15.7925 30.3878 17.1651 30.5554 18.6374C30.6142 19.1765 30.6142 20.1595 30.5509 20.3226C30.4919 20.4767 30.3017 20.685 30.1386 20.7711C29.9619 20.8617 29.586 20.8526 29.3776 20.7439C29.0287 20.5673 28.9245 20.2863 28.9245 19.5254C28.9245 18.352 28.621 17.1154 28.0956 16.155C27.4976 15.0587 26.6278 14.1527 25.5678 13.523C24.6573 12.9794 23.3118 12.5762 22.0842 12.4765C21.6402 12.4402 21.3956 12.3497 21.2279 12.1549C20.9698 11.8604 20.9425 11.4618 21.16 11.1311C21.3956 10.7641 21.758 10.7052 22.8406 10.8684ZM23.8056 14.2886C24.698 14.4788 25.3821 14.8186 25.9664 15.3668C26.7184 16.0779 27.1307 16.9387 27.3118 18.1754C27.4342 18.9817 27.3843 19.2988 27.0989 19.5616C26.8317 19.8062 26.3379 19.8152 26.0389 19.5842C25.8215 19.4211 25.7535 19.249 25.7037 18.7824C25.6448 18.1618 25.5361 17.7269 25.3504 17.3237C24.9517 16.4675 24.2495 16.0236 23.0627 15.8786C22.5054 15.8106 22.3378 15.7472 22.1566 15.5344C21.8259 15.1402 21.9527 14.5014 22.4103 14.2659C22.5825 14.1799 22.655 14.1707 23.0354 14.1934C23.271 14.207 23.6199 14.2477 23.8056 14.2886Z" fill="#FCFCFC"/>
</svg>
