<svg width="63" height="74" viewBox="0 0 63 74" fill="none" xmlns="http://www.w3.org/2000/svg">
<path d="M10.2863 62.8958H7.71484V64.1291H10.2863V62.8958Z" fill="#FCFCFC"/>
<path d="M20.5724 62.8958H18.001V65.3624H20.5724V62.8958Z" fill="#FCFCFC"/>
<path d="M29.5714 62.8965H28.2856V64.1298H29.5714V62.8965Z" fill="#FCFCFC"/>
<path d="M50.1432 13.5659H42.429V14.7993H50.1432V13.5659Z" fill="#FCFCFC"/>
<path d="M34.7141 56.7366V69.07H59.1427V56.7366H34.7141ZM50.1427 57.9699V60.4366H43.7141V57.9699H50.1427ZM50.1427 61.67V64.1367H43.7141V61.67H50.1427ZM35.9998 57.9699H42.4284V60.4366H35.9998V57.9699ZM35.9998 61.67H42.4284V64.1367H35.9998V61.67ZM35.9998 67.8367V65.37H42.4284V67.8367H35.9998ZM43.7141 67.8367V65.37H50.1427V67.8367H43.7141ZM57.857 67.8367H51.4284V65.37H57.857V67.8367ZM57.857 64.1367H51.4284V61.67H57.857V64.1367ZM57.857 60.4366H51.4284V57.9699H57.857V60.4366Z" fill="#FCFCFC"/>
<path d="M39.8569 53.0349H35.9998V54.2683H39.8569V53.0349Z" fill="#FCFCFC"/>
<path d="M39.8569 48.1008H35.9998V49.3342H39.8569V48.1008Z" fill="#FCFCFC"/>
<path d="M57.8567 53.0349H53.9995V54.2683H57.8567V53.0349Z" fill="#FCFCFC"/>
<path d="M57.8567 48.1008H53.9995V49.3342H57.8567V48.1008Z" fill="#FCFCFC"/>
<path d="M57.857 18.4968V44.3971H35.9998V18.4968H57.857ZM59.1427 17.2634H34.7141V45.6304H59.1427V17.2634Z" fill="#FCFCFC"/>
<path d="M59.1429 11.1024C59.8397 11.1024 60.4286 11.6673 60.4286 12.3358V70.3031C60.4286 70.9716 59.8397 71.5365 59.1429 71.5365H34.7143C34.0175 71.5365 33.4286 70.9716 33.4286 70.3031V12.3358C33.4286 11.6673 34.0175 11.1024 34.7143 11.1024H59.1429ZM59.1429 8.63574H34.7143C32.5929 8.63574 30.8572 10.3008 30.8572 12.3358V70.3031C30.8572 72.3381 32.5929 74.0032 34.7143 74.0032H59.1429C61.2643 74.0032 63 72.3381 63 70.3031V12.3358C63 10.3008 61.2643 8.63574 59.1429 8.63574Z" fill="#FCFCFC"/>
<path d="M50.1432 48.1015V54.2682H43.7147V48.1015H50.1432ZM50.1432 46.8682H43.7147C43.0075 46.8682 42.429 47.4232 42.429 48.1015V54.2682C42.429 54.9466 43.0075 55.5016 43.7147 55.5016H50.1432C50.8504 55.5016 51.4289 54.9466 51.4289 54.2682V48.1015C51.4289 47.4232 50.8504 46.8682 50.1432 46.8682Z" fill="#FCFCFC"/>
<path d="M15.4288 4.93408H14.1431V6.16743H15.4288V4.93408Z" fill="#FCFCFC"/>
<path d="M21.857 4.93408H16.7141V6.16743H21.857V4.93408Z" fill="#FCFCFC"/>
<path d="M29.5712 60.4363H5.14265V9.86909H30.2873C30.5715 9.40288 30.9276 8.98848 31.3493 8.63574H3.85693V61.6697H29.5712V60.4363Z" fill="#FCFCFC"/>
<path d="M3.85714 67.8341C3.14743 67.8341 2.57143 67.2803 2.57143 66.6007V3.70004C2.57143 3.02047 3.14743 2.46669 3.85714 2.46669H34.7143C35.424 2.46669 36 3.02047 36 3.70004V7.40008H38.5714V3.70004C38.5714 1.66009 36.8408 0 34.7143 0H3.85714C1.73057 0 0 1.66009 0 3.70004V66.6007C0 68.6407 1.73057 70.3008 3.85714 70.3008H29.5714V67.8341H3.85714Z" fill="#FCFCFC"/>
</svg>
