<svg width="100" height="117" viewBox="0 0 100 117" fill="none" xmlns="http://www.w3.org/2000/svg">
<path d="M64.7904 82.1894C64.7904 90.44 58.1019 97.1285 49.8513 97.1285C41.6006 97.1285 34.9121 90.44 34.9121 82.1894C34.9121 73.9387 41.6006 67.2502 49.8513 67.2502C58.1019 67.2502 64.7904 73.9387 64.7904 82.1894Z" fill="#E84526" stroke="#E84526" stroke-width="1.11924"/>
<path d="M56.445 82.1892C56.445 85.8307 53.4929 88.7828 49.8513 88.7828C46.2097 88.7828 43.2576 85.8307 43.2576 82.1892C43.2576 78.5476 46.2097 75.5955 49.8513 75.5955C53.4929 75.5955 56.445 78.5476 56.445 82.1892Z" fill="#E84526" stroke="#FCDFD4" stroke-width="1.11924"/>
<path d="M21.379 49.3666L21.3783 49.3666C16.1555 49.3726 11.1483 51.45 7.45515 55.1431C3.76204 58.8362 1.68464 63.8435 1.67867 69.0663V69.0669L1.67867 95.3121L1.67867 95.3128C1.68468 100.536 3.7621 105.543 7.45523 109.235C11.1484 112.928 16.1556 115.006 21.3783 115.011H21.3789H78.6211H78.6217C83.8444 115.006 88.8516 112.928 92.5446 109.235C96.2377 105.543 98.3149 100.535 98.3208 95.3128V95.3121V69.0669V69.0663C98.315 63.8435 96.2377 58.8363 92.5447 55.1432C88.8517 51.4501 83.8445 49.3726 78.6217 49.3666H78.6211L21.379 49.3666ZM78.6205 116.131H21.3796C15.8598 116.125 10.5678 113.929 6.66458 110.026C2.76146 106.123 0.565861 100.832 0.559435 95.3118V69.0673C0.565823 63.5475 2.76135 58.2556 6.66445 54.3525C10.5675 50.4494 15.8595 48.2538 21.3793 48.2474H78.6208C84.1405 48.2539 89.4323 50.4495 93.3353 54.3526C97.2384 58.2558 99.4339 63.5477 99.4401 69.0676V95.3115C99.4338 100.831 97.2383 106.123 93.3352 110.026C89.4321 113.929 84.1402 116.124 78.6205 116.131Z" fill="#FCFCFC" stroke="#E84526" stroke-width="1.11924"/>
<path d="M13.5661 107.301C10.8403 105.418 8.64791 102.879 7.18296 99.9308C10.4178 101.933 14.1581 103.004 17.9884 103.003C17.9884 103.003 17.9885 103.003 17.9885 103.003H68.7966C71.5073 103.003 74.1915 102.469 76.6958 101.432C79.2002 100.395 81.4757 98.8742 83.3924 96.9575C85.3092 95.0408 86.8296 92.7652 87.867 90.2609C88.9043 87.7565 89.4382 85.0724 89.4382 82.3617V60.3983V60.3974C89.4352 58.5544 89.1844 56.7231 88.6948 54.9525C90.4327 56.5528 91.8688 58.46 92.9282 60.5836C94.2746 63.2826 94.9754 66.2575 94.9755 69.2737V91.237C94.9755 93.8007 94.4706 96.3393 93.4895 98.7079C92.5084 101.076 91.0704 103.229 89.2575 105.041C87.4447 106.854 85.2926 108.292 82.924 109.273C80.5555 110.254 78.0169 110.759 75.4531 110.759H24.6452C20.6869 110.757 16.8228 109.551 13.5661 107.301Z" fill="#E84526" stroke="#E84526" stroke-width="1.11924"/>
<path d="M45.1077 6.22579C39.2801 6.17877 33.5665 7.66839 28.531 10.5136C33.8897 5.0584 41.9084 1.5695 50.8809 1.5695C67.0855 1.5695 80.1221 12.9052 80.1221 26.6689V43.6454H75.4658V32.4444C75.4658 17.912 61.7663 6.22685 45.1077 6.22579Z" fill="#E84526" stroke="#E84526" stroke-width="1.11924"/>
<path d="M17.029 47.9861V48.5458H17.5886H82.4125H82.9721V47.9861V29.8346C82.9721 14.2277 68.0941 1.67885 50.0006 1.67885C31.907 1.67885 17.029 14.2277 17.029 29.8346V47.9861ZM15.9098 49.665V29.8346C15.9098 13.7686 31.1218 0.559618 50.0006 0.559618C68.8793 0.559618 84.0913 13.7685 84.0913 29.8346V49.665H15.9098Z" fill="#FCFCFC" stroke="#E84526" stroke-width="1.11924"/>
<path d="M27.9076 36.4165L27.9076 36.4171C27.9087 37.5687 28.3667 38.6729 29.181 39.4873C29.9953 40.3018 31.0994 40.7599 32.2511 40.7612H32.2517L67.7481 40.7612L67.7487 40.7612C68.9004 40.7599 70.0045 40.3018 70.8188 39.4873C71.6331 38.6729 72.0911 37.5687 72.0922 36.4171V36.4165V28.302C72.0922 17.8309 62.0928 9.46309 49.9999 9.46309C37.907 9.46309 27.9076 17.8309 27.9076 28.302L27.9076 36.4165ZM32.2523 41.8805C30.8036 41.8788 29.4147 41.3025 28.3904 40.2781C27.3661 39.2537 26.7899 37.8648 26.7883 36.4162V28.3021C26.7883 17.3719 37.1215 8.34389 49.9999 8.34389C62.8783 8.34389 73.2115 17.372 73.2115 28.3021V36.4159C73.2099 37.8647 72.6338 39.2536 71.6094 40.2781C70.585 41.3025 69.1962 41.8788 67.7474 41.8805H32.2523Z" fill="#FCFCFC" stroke="#E84526" stroke-width="1.11924"/>
</svg>
