<svg width="100" height="100" viewBox="0 0 100 100" fill="none" xmlns="http://www.w3.org/2000/svg">
<path d="M50 100.001C77.6143 100.001 100 77.6149 100 50.0006C100 22.3864 77.6143 0.000610352 50 0.000610352C22.3858 0.000610352 0 22.3864 0 50.0006C0 77.6149 22.3858 100.001 50 100.001Z" fill="#F25E26"/>
<path d="M74.6183 28.8965C75.2486 29.4122 65.9094 41.979 53.7627 56.9523L46.3907 65.8904L45.3784 67.1128L44.3089 66.005C34.7596 56.2075 28.3234 48.95 28.7818 48.4916C29.2402 48.0333 36.5167 54.5077 46.2951 63.9997L44.2325 64.2098L51.4518 55.1761C63.5985 40.1074 73.969 28.3808 74.6183 28.8965Z" fill="#F6F6F6"/>
</svg>
